
        <svg xmlns="http://www.w3.org/2000/svg" xmlns:xlink="http://www.w3.org/1999/xlink" version="1.1" width="3162.1621621621625" height="640.72075921136" viewBox="0 0 3162.1621621621625 640.72075921136">
			
			<g transform="scale(8.108108108108109) translate(10, 10)">
				<defs id="SvgjsDefs27809"/><g id="SvgjsG27810" featureKey="UqkkrJ-0" transform="matrix(0.7777777777777779,0,0,0.7777777777777779,1.1111111111111107,-8.877778371175133)" fill="#000"><path xmlns="http://www.w3.org/2000/svg" d="M5,20.1l7.4-7.4l26.1,26.1l7.5,7.4l-7.5,7.4L12.4,79.7L5,72.3l26.1-26.1L5,20.1z M95,87.3V75.7H48.8v11.6H95z"/></g><g id="SvgjsG27811" featureKey="0kuQ8p-0" transform="matrix(2.4010427938542995,0,0,2.4010427938542995,89.47177166156409,-14.022086847759898)" fill="#000"><path d="M5.68 6 l2.24 14 l-2.22 0 l-0.38 -2.54 l-2.7 0 l-0.38 2.54 l-2.02 0 l2.24 -14 l3.22 0 z M3.94 8.48 l-1.04 7.08 l2.12 0 l-1.04 -7.08 l-0.04 0 z M15.443 6 l2.24 14 l-2.22 0 l-0.38 -2.54 l-2.7 0 l-0.38 2.54 l-2.02 0 l2.24 -14 l3.22 0 z M13.703 8.48 l-1.04 7.08 l2.12 0 l-1.04 -7.08 l-0.04 0 z M27.166 20 l-2.24 0 c-0.12 -0.36 -0.2 -0.58 -0.2 -1.72 l0 -2.2 c0 -1.3 -0.44 -1.78 -1.44 -1.78 l-0.76 0 l0 5.7 l-2.2 0 l0 -14 l3.32 0 c2.28 0 3.26 1.06 3.26 3.22 l0 1.1 c0 1.44 -0.46 2.36 -1.44 2.82 l0 0.04 c1.1 0.46 1.46 1.5 1.46 2.96 l0 2.16 c0 0.68 0.02 1.18 0.24 1.7 z M23.586 8 l-1.06 0 l0 4.3 l0.86 0 c0.82 0 1.32 -0.36 1.32 -1.48 l0 -1.38 c0 -1 -0.34 -1.44 -1.12 -1.44 z M32.009 9.22 l0 7.56 c0 1 0.44 1.38 1.14 1.38 s1.14 -0.38 1.14 -1.38 l0 -7.56 c0 -1 -0.44 -1.38 -1.14 -1.38 s-1.14 0.38 -1.14 1.38 z M29.809 16.64 l0 -7.28 c0 -2.24 1.18 -3.52 3.34 -3.52 s3.34 1.28 3.34 3.52 l0 7.28 c0 2.24 -1.18 3.52 -3.34 3.52 s-3.34 -1.28 -3.34 -3.52 z M44.232 20 l-2.7 -10.14 l-0.04 0 l0 10.14 l-1.98 0 l0 -14 l2.76 0 l2.22 8.38 l0.04 0 l0 -8.38 l1.96 0 l0 14 l-2.26 0 z M57.717999999999996 14.2 l0 -2 l3.08 0 l0 4.44 c0 2.24 -1.12 3.52 -3.28 3.52 s-3.28 -1.28 -3.28 -3.52 l0 -7.28 c0 -2.24 1.12 -3.52 3.28 -3.52 s3.28 1.28 3.28 3.52 l0 1.36 l-2.08 0 l0 -1.5 c0 -1 -0.44 -1.38 -1.14 -1.38 s-1.14 0.38 -1.14 1.38 l0 7.56 c0 1 0.44 1.36 1.14 1.36 s1.14 -0.36 1.14 -1.36 l0 -2.58 l-1 0 z M66.041 8 l0 3.9 l3.02 0 l0 2 l-3.02 0 l0 4.1 l3.8 0 l0 2 l-6 0 l0 -14 l6 0 l0 2 l-3.8 0 z M79.664 20 l-2.24 0 c-0.12 -0.36 -0.2 -0.58 -0.2 -1.72 l0 -2.2 c0 -1.3 -0.44 -1.78 -1.44 -1.78 l-0.76 0 l0 5.7 l-2.2 0 l0 -14 l3.32 0 c2.28 0 3.26 1.06 3.26 3.22 l0 1.1 c0 1.44 -0.46 2.36 -1.44 2.82 l0 0.04 c1.1 0.46 1.46 1.5 1.46 2.96 l0 2.16 c0 0.68 0.02 1.18 0.24 1.7 z M76.084 8 l-1.06 0 l0 4.3 l0.86 0 c0.82 0 1.32 -0.36 1.32 -1.48 l0 -1.38 c0 -1 -0.34 -1.44 -1.12 -1.44 z M82.207 9.36 c0 -2.24 1.1 -3.52 3.24 -3.52 s3.24 1.28 3.24 3.52 l0 0.44 l-2.08 0 l0 -0.58 c0 -1 -0.4 -1.38 -1.1 -1.38 s-1.1 0.38 -1.1 1.38 c0 1.02 0.44 1.78 1.88 3.04 c1.84 1.62 2.42 2.78 2.42 4.38 c0 2.24 -1.12 3.52 -3.28 3.52 s-3.28 -1.28 -3.28 -3.52 l0 -0.86 l2.08 0 l0 1 c0 1 0.44 1.36 1.14 1.36 s1.14 -0.36 1.14 -1.36 c0 -1.02 -0.44 -1.78 -1.88 -3.04 c-1.84 -1.62 -2.42 -2.78 -2.42 -4.38 z M90.94999999999999 8 l0 -2 l6.8 0 l0 2 l-2.3 0 l0 12 l-2.2 0 l0 -12 l-2.3 0 z M102.35299999999998 9.22 l0 7.56 c0 1 0.44 1.38 1.14 1.38 s1.14 -0.38 1.14 -1.38 l0 -7.56 c0 -1 -0.44 -1.38 -1.14 -1.38 s-1.14 0.38 -1.14 1.38 z M100.15299999999999 16.64 l0 -7.28 c0 -2.24 1.18 -3.52 3.34 -3.52 s3.34 1.28 3.34 3.52 l0 7.28 c0 2.24 -1.18 3.52 -3.34 3.52 s-3.34 -1.28 -3.34 -3.52 z M114.576 20 l-2.7 -10.14 l-0.04 0 l0 10.14 l-1.98 0 l0 -14 l2.76 0 l2.22 8.38 l0.04 0 l0 -8.38 l1.96 0 l0 14 l-2.26 0 z"/></g><g id="SvgjsG27812" featureKey="Nh6iBa-0" transform="matrix(0.9608520725724479,0,0,0.9608520725724479,88.44341975239342,38.94591833651731)" fill="#000"><path d="M1.62 20 l0 -14.36 l5.82 0 c3.74 0 6.04 2.84 6.04 6.98 c0 3.22 -1.4 7.38 -6.12 7.38 l-5.74 0 z M3.56 7.300000000000001 l0 11.04 l3.76 0 c2.52 0 4.16 -1.98 4.16 -5.6 s-1.66 -5.44 -4.3 -5.44 l-3.62 0 z M33.976 15.82 l-5.76 0 l-1.5 4.18 l-2 0 l5.4 -14.36 l2.2 0 l5.2 14.36 l-2.12 0 z M28.816 14.1 l4.46 0 l-2.12 -6.32 l-0.04 0 z M48.052 7.359999999999999 l0 -1.72 l11.66 0 l0 1.72 l-4.86 0 l0 12.64 l-1.94 0 l0 -12.64 l-4.86 0 z M79.52799999999999 15.82 l-5.76 0 l-1.5 4.18 l-2 0 l5.4 -14.36 l2.2 0 l5.2 14.36 l-2.12 0 z M74.368 14.1 l4.46 0 l-2.12 -6.32 l-0.04 0 z M120.88 9.84 l-1.82 0 c-0.1 -2.22 -1.94 -2.92 -3.56 -2.92 c-1.22 0 -3.28 0.34 -3.28 2.52 c0 1.22 0.86 1.62 1.7 1.82 l4.1 0.94 c1.86 0.44 3.26 1.56 3.26 3.84 c0 3.4 -3.16 4.34 -5.62 4.34 c-2.66 0 -3.7 -0.8 -4.34 -1.38 c-1.22 -1.1 -1.46 -2.3 -1.46 -3.64 l1.82 0 c0 2.6 2.12 3.36 3.96 3.36 c1.4 0 3.76 -0.36 3.76 -2.42 c0 -1.5 -0.7 -1.98 -3.06 -2.54 l-2.94 -0.68 c-0.94 -0.22 -3.06 -0.88 -3.06 -3.38 c0 -2.24 1.46 -4.44 4.94 -4.44 c5.02 0 5.52 3 5.6 4.58 z M145.696 9.96 l-1.88 0 c-0.54 -2.52 -2.64 -2.98 -4.02 -2.98 c-2.6 0 -4.7 1.92 -4.7 5.7 c0 3.38 1.2 5.98 4.76 5.98 c1.26 0 3.44 -0.6 4.1 -3.94 l1.88 0 c-0.8 5.42 -5.2 5.66 -6.28 5.66 c-3.26 0 -6.46 -2.12 -6.46 -7.64 c0 -4.42 2.52 -7.48 6.7 -7.48 c3.7 0 5.62 2.3 5.9 4.7 z M160.412 5.640000000000001 l0 14.36 l-1.94 0 l0 -14.36 l1.94 0 z M184.52800000000002 18.28 l0 1.72 l-10.6 0 l0 -14.36 l10.46 0 l0 1.72 l-8.52 0 l0 4.4 l7.86 0 l0 1.72 l-7.86 0 l0 4.8 l8.66 0 z M206.58400000000003 17.240000000000002 l0 -11.6 l1.88 0 l0 14.36 l-2.18 0 l-7.3 -11.6 l-0.04 0 l0 11.6 l-1.88 0 l0 -14.36 l2.3 0 l7.18 11.6 l0.04 0 z M220.26000000000005 7.359999999999999 l0 -1.72 l11.66 0 l0 1.72 l-4.86 0 l0 12.64 l-1.94 0 l0 -12.64 l-4.86 0 z M245.95600000000005 5.640000000000001 l0 14.36 l-1.94 0 l0 -14.36 l1.94 0 z M269.75200000000007 9.84 l-1.82 0 c-0.1 -2.22 -1.94 -2.92 -3.56 -2.92 c-1.22 0 -3.28 0.34 -3.28 2.52 c0 1.22 0.86 1.62 1.7 1.82 l4.1 0.94 c1.86 0.44 3.26 1.56 3.26 3.84 c0 3.4 -3.16 4.34 -5.62 4.34 c-2.66 0 -3.7 -0.8 -4.34 -1.38 c-1.22 -1.1 -1.46 -2.3 -1.46 -3.64 l1.82 0 c0 2.6 2.12 3.36 3.96 3.36 c1.4 0 3.76 -0.36 3.76 -2.42 c0 -1.5 -0.7 -1.98 -3.06 -2.54 l-2.94 -0.68 c-0.94 -0.22 -3.06 -0.88 -3.06 -3.38 c0 -2.24 1.46 -4.44 4.94 -4.44 c5.02 0 5.52 3 5.6 4.58 z M281.36800000000005 7.359999999999999 l0 -1.72 l11.66 0 l0 1.72 l-4.86 0 l0 12.64 l-1.94 0 l0 -12.64 l-4.86 0 z"/></g>
			</g>
		</svg>
	